<svg version="1.1" viewBox="0.0 0.0 153.6010498687664 153.6010498687664" fill="none" stroke="none" stroke-linecap="square" stroke-miterlimit="10" xmlns:xlink="http://www.w3.org/1999/xlink" xmlns="http://www.w3.org/2000/svg"><clipPath id="p.0"><path d="m0 0l153.60104 0l0 153.60104l-153.60104 0l0 -153.60104z" clip-rule="nonzero"/></clipPath><g clip-path="url(#p.0)"><path fill="#000000" fill-opacity="0.0" d="m0 0l153.60104 0l0 153.60104l-153.60104 0z" fill-rule="evenodd"/><path fill="#38761d" d="m66.2186 14.956651l10.137161 -10.156126c4.5776367E-5 -4.4822693E-5 1.0681152E-4 -7.009506E-5 1.7547607E-4 -7.009506E-5c6.1035156E-5 0 1.2207031E-4 2.527237E-5 1.6784668E-4 7.009506E-5l10.136826 10.156126l0 0c5.5986023 5.6090746 5.5986023 14.703179 0 20.312252l-10.137169 10.156128l0 0c-9.1552734E-5 9.1552734E-5 -2.4414062E-4 9.1552734E-5 -3.3569336E-4 0l-10.136826 -10.156128l0 0c-5.5986023 -5.6090717 -5.5986023 -14.7031765 0 -20.312252z" fill-rule="evenodd"/><path stroke="#38761d" stroke-width="1.0" stroke-linejoin="round" stroke-linecap="butt" d="m66.2186 14.956651l10.137161 -10.156126c4.5776367E-5 -4.4822693E-5 1.0681152E-4 -7.009506E-5 1.7547607E-4 -7.009506E-5c6.1035156E-5 0 1.2207031E-4 2.527237E-5 1.6784668E-4 7.009506E-5l10.136826 10.156126l0 0c5.5986023 5.6090746 5.5986023 14.703179 0 20.312252l-10.137169 10.156128l0 0c-9.1552734E-5 9.1552734E-5 -2.4414062E-4 9.1552734E-5 -3.3569336E-4 0l-10.136826 -10.156128l0 0c-5.5986023 -5.6090717 -5.5986023 -14.7031765 0 -20.312252z" fill-rule="evenodd"/><path fill="#38761d" d="m88.519394 45.415962l9.3592 0c3.8146973E-5 0 7.6293945E-5 1.5258789E-5 1.0681152E-4 4.5776367E-5c3.0517578E-5 3.0517578E-5 4.5776367E-5 6.866455E-5 4.5776367E-5 1.1062622E-4l-1.5258789E-4 19.361225c0 5.1689453 -4.190262 9.3592 -9.3592 9.3592l-9.3592 0l0 0c-8.392334E-5 0 -1.5258789E-4 -6.866455E-5 -1.5258789E-4 -1.6021729E-4l1.5258789E-4 -19.361225l0 0c0 -5.1689415 4.190254 -9.359196 9.3592 -9.359196z" fill-rule="evenodd"/><path stroke="#38761d" stroke-width="1.0" stroke-linejoin="round" stroke-linecap="butt" d="m88.519394 45.415962l9.3592 0c3.8146973E-5 0 7.6293945E-5 1.5258789E-5 1.0681152E-4 4.5776367E-5c3.0517578E-5 3.0517578E-5 4.5776367E-5 6.866455E-5 4.5776367E-5 1.1062622E-4l-1.5258789E-4 19.361225c0 5.1689453 -4.190262 9.3592 -9.3592 9.3592l-9.3592 0l0 0c-8.392334E-5 0 -1.5258789E-4 -6.866455E-5 -1.5258789E-4 -1.6021729E-4l1.5258789E-4 -19.361225l0 0c0 -5.1689415 4.190254 -9.359196 9.3592 -9.359196z" fill-rule="evenodd"/><path fill="#38761d" d="m64.18976 45.415962l-9.3592 0c-4.196167E-5 0 -8.010864E-5 1.5258789E-5 -1.1062622E-4 4.5776367E-5c-3.0517578E-5 3.0517578E-5 -4.5776367E-5 6.866455E-5 -4.5776367E-5 1.1062622E-4l1.5640259E-4 19.361225c0 5.1689453 4.190254 9.3592 9.3592 9.3592l9.359192 0l0 0c9.1552734E-5 0 1.6021729E-4 -6.866455E-5 1.6021729E-4 -1.6021729E-4l-1.6021729E-4 -19.361225l0 0c0 -5.1689415 -4.190254 -9.359196 -9.359192 -9.359196z" fill-rule="evenodd"/><path stroke="#38761d" stroke-width="1.0" stroke-linejoin="round" stroke-linecap="butt" d="m64.18976 45.415962l-9.3592 0c-4.196167E-5 0 -8.010864E-5 1.5258789E-5 -1.1062622E-4 4.5776367E-5c-3.0517578E-5 3.0517578E-5 -4.5776367E-5 6.866455E-5 -4.5776367E-5 1.1062622E-4l1.5640259E-4 19.361225c0 5.1689453 4.190254 9.3592 9.3592 9.3592l9.359192 0l0 0c9.1552734E-5 0 1.6021729E-4 -6.866455E-5 1.6021729E-4 -1.6021729E-4l-1.6021729E-4 -19.361225l0 0c0 -5.1689415 -4.190254 -9.359196 -9.359192 -9.359196z" fill-rule="evenodd"/><path fill="#38761d" d="m88.51934 82.747475l9.3592 0c3.8146973E-5 0 7.6293945E-5 1.5258789E-5 1.0681152E-4 4.5776367E-5c3.0517578E-5 3.0517578E-5 4.5776367E-5 6.866455E-5 4.5776367E-5 1.0681152E-4l-1.5258789E-4 19.361229c0 5.1689453 -4.190254 9.3592 -9.3592 9.3592l-9.359192 0l0 0c-9.1552734E-5 0 -1.6021729E-4 -6.866455E-5 -1.6021729E-4 -1.6021729E-4l1.6021729E-4 -19.361221l0 0c0 -5.1689453 4.190254 -9.3592 9.359192 -9.3592z" fill-rule="evenodd"/><path stroke="#38761d" stroke-width="1.0" stroke-linejoin="round" stroke-linecap="butt" d="m88.51934 82.747475l9.3592 0c3.8146973E-5 0 7.6293945E-5 1.5258789E-5 1.0681152E-4 4.5776367E-5c3.0517578E-5 3.0517578E-5 4.5776367E-5 6.866455E-5 4.5776367E-5 1.0681152E-4l-1.5258789E-4 19.361229c0 5.1689453 -4.190254 9.3592 -9.3592 9.3592l-9.359192 0l0 0c-9.1552734E-5 0 -1.6021729E-4 -6.866455E-5 -1.6021729E-4 -1.6021729E-4l1.6021729E-4 -19.361221l0 0c0 -5.1689453 4.190254 -9.3592 9.359192 -9.3592z" fill-rule="evenodd"/><path fill="#38761d" d="m64.189705 82.747475l-9.359196 0c-4.196167E-5 0 -8.392334E-5 1.5258789E-5 -1.1062622E-4 4.5776367E-5c-3.0517578E-5 3.0517578E-5 -4.5776367E-5 6.866455E-5 -4.5776367E-5 1.0681152E-4l1.5640259E-4 19.361229c0 5.1689453 4.190254 9.3592 9.359196 9.3592l9.3592 0l0 0c8.392334E-5 0 1.5258789E-4 -6.866455E-5 1.5258789E-4 -1.6021729E-4l-1.5258789E-4 -19.361221l0 0c0 -5.1689453 -4.190262 -9.3592 -9.3592 -9.3592z" fill-rule="evenodd"/><path stroke="#38761d" stroke-width="1.0" stroke-linejoin="round" stroke-linecap="butt" d="m64.189705 82.747475l-9.359196 0c-4.196167E-5 0 -8.392334E-5 1.5258789E-5 -1.1062622E-4 4.5776367E-5c-3.0517578E-5 3.0517578E-5 -4.5776367E-5 6.866455E-5 -4.5776367E-5 1.0681152E-4l1.5640259E-4 19.361229c0 5.1689453 4.190254 9.3592 9.359196 9.3592l9.3592 0l0 0c8.392334E-5 0 1.5258789E-4 -6.866455E-5 1.5258789E-4 -1.6021729E-4l-1.5258789E-4 -19.361221l0 0c0 -5.1689453 -4.190262 -9.3592 -9.3592 -9.3592z" fill-rule="evenodd"/><path fill="#38761d" d="m88.51934 120.07918l9.3592 0c3.8146973E-5 0 7.6293945E-5 2.2888184E-5 1.0681152E-4 4.5776367E-5c3.0517578E-5 3.0517578E-5 4.5776367E-5 6.866455E-5 4.5776367E-5 1.1444092E-4l-1.5258789E-4 19.361229c0 5.1689453 -4.190254 9.359192 -9.3592 9.359192l-9.359192 0l0 0c-9.1552734E-5 0 -1.6021729E-4 -6.1035156E-5 -1.6021729E-4 -1.5258789E-4l1.6021729E-4 -19.361221l0 0c0 -5.1689453 4.190254 -9.359207 9.359192 -9.359207z" fill-rule="evenodd"/><path stroke="#38761d" stroke-width="1.0" stroke-linejoin="round" stroke-linecap="butt" d="m88.51934 120.07918l9.3592 0c3.8146973E-5 0 7.6293945E-5 2.2888184E-5 1.0681152E-4 4.5776367E-5c3.0517578E-5 3.0517578E-5 4.5776367E-5 6.866455E-5 4.5776367E-5 1.1444092E-4l-1.5258789E-4 19.361229c0 5.1689453 -4.190254 9.359192 -9.3592 9.359192l-9.359192 0l0 0c-9.1552734E-5 0 -1.6021729E-4 -6.1035156E-5 -1.6021729E-4 -1.5258789E-4l1.6021729E-4 -19.361221l0 0c0 -5.1689453 4.190254 -9.359207 9.359192 -9.359207z" fill-rule="evenodd"/><path fill="#38761d" d="m64.189705 120.07918l-9.359196 0c-4.196167E-5 0 -8.392334E-5 2.2888184E-5 -1.1062622E-4 4.5776367E-5c-3.0517578E-5 3.0517578E-5 -4.5776367E-5 6.866455E-5 -4.5776367E-5 1.1444092E-4l1.5640259E-4 19.361229c0 5.1689453 4.190254 9.359192 9.359196 9.359192l9.3592 0l0 0c8.392334E-5 0 1.5258789E-4 -6.1035156E-5 1.5258789E-4 -1.5258789E-4l-1.5258789E-4 -19.361221l0 0c0 -5.1689453 -4.190262 -9.359207 -9.3592 -9.359207z" fill-rule="evenodd"/><path stroke="#38761d" stroke-width="1.0" stroke-linejoin="round" stroke-linecap="butt" d="m64.189705 120.07918l-9.359196 0c-4.196167E-5 0 -8.392334E-5 2.2888184E-5 -1.1062622E-4 4.5776367E-5c-3.0517578E-5 3.0517578E-5 -4.5776367E-5 6.866455E-5 -4.5776367E-5 1.1444092E-4l1.5640259E-4 19.361229c0 5.1689453 4.190254 9.359192 9.359196 9.359192l9.3592 0l0 0c8.392334E-5 0 1.5258789E-4 -6.1035156E-5 1.5258789E-4 -1.5258789E-4l-1.5258789E-4 -19.361221l0 0c0 -5.1689453 -4.190262 -9.359207 -9.3592 -9.359207z" fill-rule="evenodd"/><path fill="#38761d" d="m16.925594 31.040775l7.614662 -7.510809c3.4332275E-5 -3.2424927E-5 7.8201294E-5 -5.1498413E-5 1.2588501E-4 -5.1498413E-5c4.7683716E-5 0 9.346008E-5 1.9073486E-5 1.2779236E-4 5.1498413E-5l7.6144085 7.510809l0 0c4.2054596 4.1481056 4.2054596 10.873512 0 15.021618l-7.614662 7.510811l0 0c-7.05719E-5 6.866455E-5 -1.8310547E-4 6.866455E-5 -2.5367737E-4 0l-7.6144085 -7.510811l0 0c-4.2054605 -4.1481056 -4.2054605 -10.873512 0 -15.021618z" fill-rule="evenodd"/><path stroke="#38761d" stroke-width="1.0" stroke-linejoin="round" stroke-linecap="butt" d="m16.925594 31.040775l7.614662 -7.510809c3.4332275E-5 -3.2424927E-5 7.8201294E-5 -5.1498413E-5 1.2588501E-4 -5.1498413E-5c4.7683716E-5 0 9.346008E-5 1.9073486E-5 1.2779236E-4 5.1498413E-5l7.6144085 7.510809l0 0c4.2054596 4.1481056 4.2054596 10.873512 0 15.021618l-7.614662 7.510811l0 0c-7.05719E-5 6.866455E-5 -1.8310547E-4 6.866455E-5 -2.5367737E-4 0l-7.6144085 -7.510811l0 0c-4.2054605 -4.1481056 -4.2054605 -10.873512 0 -15.021618z" fill-rule="evenodd"/><path fill="#38761d" d="m33.650833 53.575943l7.013504 0c3.0517578E-5 0 6.1035156E-5 1.1444092E-5 8.392334E-5 3.4332275E-5c1.9073486E-5 1.9073486E-5 3.4332275E-5 4.9591064E-5 3.4332275E-5 8.010864E-5l-1.18255615E-4 14.243385c0 3.8734512 -3.1400528 7.013504 -7.013504 7.013504l-7.013504 0l0 0c-6.484985E-5 0 -1.1634827E-4 -4.5776367E-5 -1.1634827E-4 -1.1444092E-4l1.1634827E-4 -14.243385l0 0c0 -3.8734512 3.1400528 -7.013504 7.013504 -7.013504z" fill-rule="evenodd"/><path stroke="#38761d" stroke-width="1.0" stroke-linejoin="round" stroke-linecap="butt" d="m33.650833 53.575943l7.013504 0c3.0517578E-5 0 6.1035156E-5 1.1444092E-5 8.392334E-5 3.4332275E-5c1.9073486E-5 1.9073486E-5 3.4332275E-5 4.9591064E-5 3.4332275E-5 8.010864E-5l-1.18255615E-4 14.243385c0 3.8734512 -3.1400528 7.013504 -7.013504 7.013504l-7.013504 0l0 0c-6.484985E-5 0 -1.1634827E-4 -4.5776367E-5 -1.1634827E-4 -1.1444092E-4l1.1634827E-4 -14.243385l0 0c0 -3.8734512 3.1400528 -7.013504 7.013504 -7.013504z" fill-rule="evenodd"/><path fill="#38761d" d="m15.4111805 53.575943l-7.013504 0c-3.1471252E-5 0 -6.1035156E-5 1.1444092E-5 -8.2969666E-5 3.4332275E-5c-2.193451E-5 1.9073486E-5 -3.4332275E-5 4.9591064E-5 -3.4332275E-5 8.010864E-5l1.1730194E-4 14.243385c0 3.8734512 3.1400528 7.013504 7.013504 7.013504l7.013504 0l0 0c6.484985E-5 0 1.1634827E-4 -4.5776367E-5 1.1634827E-4 -1.1444092E-4l-1.1634827E-4 -14.243385l0 0c0 -3.8734512 -3.1400528 -7.013504 -7.013504 -7.013504z" fill-rule="evenodd"/><path stroke="#38761d" stroke-width="1.0" stroke-linejoin="round" stroke-linecap="butt" d="m15.4111805 53.575943l-7.013504 0c-3.1471252E-5 0 -6.1035156E-5 1.1444092E-5 -8.2969666E-5 3.4332275E-5c-2.193451E-5 1.9073486E-5 -3.4332275E-5 4.9591064E-5 -3.4332275E-5 8.010864E-5l1.1730194E-4 14.243385c0 3.8734512 3.1400528 7.013504 7.013504 7.013504l7.013504 0l0 0c6.484985E-5 0 1.1634827E-4 -4.5776367E-5 1.1634827E-4 -1.1444092E-4l-1.1634827E-4 -14.243385l0 0c0 -3.8734512 -3.1400528 -7.013504 -7.013504 -7.013504z" fill-rule="evenodd"/><path fill="#38761d" d="m33.650795 81.20126l7.013504 0c3.0517578E-5 0 6.1035156E-5 7.6293945E-6 8.392334E-5 3.0517578E-5c1.9073486E-5 2.2888184E-5 3.4332275E-5 5.340576E-5 3.4332275E-5 8.392334E-5l-1.18255615E-4 14.243385c0 3.8734512 -3.1400528 7.013504 -7.013504 7.013504l-7.013504 0l0 0c-6.484985E-5 0 -1.1634827E-4 -5.340576E-5 -1.1634827E-4 -1.1444092E-4l1.1634827E-4 -14.243385l0 0c0 -3.8734512 3.1400528 -7.013504 7.013504 -7.013504z" fill-rule="evenodd"/><path stroke="#38761d" stroke-width="1.0" stroke-linejoin="round" stroke-linecap="butt" d="m33.650795 81.20126l7.013504 0c3.0517578E-5 0 6.1035156E-5 7.6293945E-6 8.392334E-5 3.0517578E-5c1.9073486E-5 2.2888184E-5 3.4332275E-5 5.340576E-5 3.4332275E-5 8.392334E-5l-1.18255615E-4 14.243385c0 3.8734512 -3.1400528 7.013504 -7.013504 7.013504l-7.013504 0l0 0c-6.484985E-5 0 -1.1634827E-4 -5.340576E-5 -1.1634827E-4 -1.1444092E-4l1.1634827E-4 -14.243385l0 0c0 -3.8734512 3.1400528 -7.013504 7.013504 -7.013504z" fill-rule="evenodd"/><path fill="#38761d" d="m15.411141 81.20126l-7.013504 0c-3.0517578E-5 0 -6.0081482E-5 7.6293945E-6 -8.201599E-5 3.0517578E-5c-2.193451E-5 2.2888184E-5 -3.4332275E-5 5.340576E-5 -3.4332275E-5 8.392334E-5l1.1634827E-4 14.243385c0 3.8734512 3.1400528 7.013504 7.013504 7.013504l7.013505 0l0 0c6.2942505E-5 0 1.1634827E-4 -5.340576E-5 1.1634827E-4 -1.1444092E-4l-1.1634827E-4 -14.243385l0 0c0 -3.8734512 -3.1400528 -7.013504 -7.013505 -7.013504z" fill-rule="evenodd"/><path stroke="#38761d" stroke-width="1.0" stroke-linejoin="round" stroke-linecap="butt" d="m15.411141 81.20126l-7.013504 0c-3.0517578E-5 0 -6.0081482E-5 7.6293945E-6 -8.201599E-5 3.0517578E-5c-2.193451E-5 2.2888184E-5 -3.4332275E-5 5.340576E-5 -3.4332275E-5 8.392334E-5l1.1634827E-4 14.243385c0 3.8734512 3.1400528 7.013504 7.013504 7.013504l7.013505 0l0 0c6.2942505E-5 0 1.1634827E-4 -5.340576E-5 1.1634827E-4 -1.1444092E-4l-1.1634827E-4 -14.243385l0 0c0 -3.8734512 -3.1400528 -7.013504 -7.013505 -7.013504z" fill-rule="evenodd"/><path fill="#38761d" d="m33.650795 108.82672l7.013504 0c3.0517578E-5 0 6.1035156E-5 1.5258789E-5 8.392334E-5 3.8146973E-5c1.9073486E-5 2.2888184E-5 3.4332275E-5 5.340576E-5 3.4332275E-5 8.392334E-5l-1.18255615E-4 14.243385c0 3.8734512 -3.1400528 7.0134964 -7.013504 7.0134964l-7.013504 0l0 0c-6.484985E-5 0 -1.1634827E-4 -4.5776367E-5 -1.1634827E-4 -1.0681152E-4l1.1634827E-4 -14.243393l0 0c0 -3.8734512 3.1400528 -7.013504 7.013504 -7.013504z" fill-rule="evenodd"/><path stroke="#38761d" stroke-width="1.0" stroke-linejoin="round" stroke-linecap="butt" d="m33.650795 108.82672l7.013504 0c3.0517578E-5 0 6.1035156E-5 1.5258789E-5 8.392334E-5 3.8146973E-5c1.9073486E-5 2.2888184E-5 3.4332275E-5 5.340576E-5 3.4332275E-5 8.392334E-5l-1.18255615E-4 14.243385c0 3.8734512 -3.1400528 7.0134964 -7.013504 7.0134964l-7.013504 0l0 0c-6.484985E-5 0 -1.1634827E-4 -4.5776367E-5 -1.1634827E-4 -1.0681152E-4l1.1634827E-4 -14.243393l0 0c0 -3.8734512 3.1400528 -7.013504 7.013504 -7.013504z" fill-rule="evenodd"/><path fill="#38761d" d="m15.411141 108.82672l-7.013504 0c-3.0517578E-5 0 -6.0081482E-5 1.5258789E-5 -8.201599E-5 3.8146973E-5c-2.193451E-5 2.2888184E-5 -3.4332275E-5 5.340576E-5 -3.4332275E-5 8.392334E-5l1.1634827E-4 14.243385c0 3.8734512 3.1400528 7.0134964 7.013504 7.0134964l7.013505 0l0 0c6.2942505E-5 0 1.1634827E-4 -4.5776367E-5 1.1634827E-4 -1.0681152E-4l-1.1634827E-4 -14.243393l0 0c0 -3.8734512 -3.1400528 -7.013504 -7.013505 -7.013504z" fill-rule="evenodd"/><path stroke="#38761d" stroke-width="1.0" stroke-linejoin="round" stroke-linecap="butt" d="m15.411141 108.82672l-7.013504 0c-3.0517578E-5 0 -6.0081482E-5 1.5258789E-5 -8.201599E-5 3.8146973E-5c-2.193451E-5 2.2888184E-5 -3.4332275E-5 5.340576E-5 -3.4332275E-5 8.392334E-5l1.1634827E-4 14.243385c0 3.8734512 3.1400528 7.0134964 7.013504 7.0134964l7.013505 0l0 0c6.2942505E-5 0 1.1634827E-4 -4.5776367E-5 1.1634827E-4 -1.0681152E-4l-1.1634827E-4 -14.243393l0 0c0 -3.8734512 -3.1400528 -7.013504 -7.013505 -7.013504z" fill-rule="evenodd"/><path fill="#38761d" d="m121.46412 31.040775l7.614662 -7.510809c3.0517578E-5 -3.2424927E-5 7.6293945E-5 -5.1498413E-5 1.2207031E-4 -5.1498413E-5c6.1035156E-5 0 1.0681152E-4 1.9073486E-5 1.373291E-4 5.1498413E-5l7.6144104 7.510809l0 0c4.2054596 4.1481056 4.2054596 10.873512 0 15.021618l-7.61467 7.510811l0 0c-6.1035156E-5 6.866455E-5 -1.8310547E-4 6.866455E-5 -2.593994E-4 0l-7.614403 -7.510811l0 0c-4.2054596 -4.1481056 -4.2054596 -10.873512 0 -15.021618z" fill-rule="evenodd"/><path stroke="#38761d" stroke-width="1.0" stroke-linejoin="round" stroke-linecap="butt" d="m121.46412 31.040775l7.614662 -7.510809c3.0517578E-5 -3.2424927E-5 7.6293945E-5 -5.1498413E-5 1.2207031E-4 -5.1498413E-5c6.1035156E-5 0 1.0681152E-4 1.9073486E-5 1.373291E-4 5.1498413E-5l7.6144104 7.510809l0 0c4.2054596 4.1481056 4.2054596 10.873512 0 15.021618l-7.61467 7.510811l0 0c-6.1035156E-5 6.866455E-5 -1.8310547E-4 6.866455E-5 -2.593994E-4 0l-7.614403 -7.510811l0 0c-4.2054596 -4.1481056 -4.2054596 -10.873512 0 -15.021618z" fill-rule="evenodd"/><path fill="#38761d" d="m138.18936 53.575943l7.013504 0c3.0517578E-5 0 6.1035156E-5 1.1444092E-5 7.6293945E-5 3.4332275E-5c3.0517578E-5 1.9073486E-5 4.5776367E-5 4.9591064E-5 4.5776367E-5 8.010864E-5l-1.2207031E-4 14.243385c0 3.8734512 -3.1400604 7.013504 -7.013504 7.013504l-7.013504 0l0 0c-6.1035156E-5 0 -1.2207031E-4 -4.5776367E-5 -1.2207031E-4 -1.1444092E-4l1.2207031E-4 -14.243385l0 0c0 -3.8734512 3.1400452 -7.013504 7.013504 -7.013504z" fill-rule="evenodd"/><path stroke="#38761d" stroke-width="1.0" stroke-linejoin="round" stroke-linecap="butt" d="m138.18936 53.575943l7.013504 0c3.0517578E-5 0 6.1035156E-5 1.1444092E-5 7.6293945E-5 3.4332275E-5c3.0517578E-5 1.9073486E-5 4.5776367E-5 4.9591064E-5 4.5776367E-5 8.010864E-5l-1.2207031E-4 14.243385c0 3.8734512 -3.1400604 7.013504 -7.013504 7.013504l-7.013504 0l0 0c-6.1035156E-5 0 -1.2207031E-4 -4.5776367E-5 -1.2207031E-4 -1.1444092E-4l1.2207031E-4 -14.243385l0 0c0 -3.8734512 3.1400452 -7.013504 7.013504 -7.013504z" fill-rule="evenodd"/><path fill="#38761d" d="m119.94971 53.575943l-7.013504 0c-3.0517578E-5 0 -6.1035156E-5 1.1444092E-5 -8.392334E-5 3.4332275E-5c-2.2888184E-5 1.9073486E-5 -3.0517578E-5 4.9591064E-5 -3.0517578E-5 8.010864E-5l1.1444092E-4 14.243385c0 3.8734512 3.1400528 7.013504 7.013504 7.013504l7.013504 0l0 0c6.1035156E-5 0 1.1444092E-4 -4.5776367E-5 1.1444092E-4 -1.1444092E-4l-1.1444092E-4 -14.243385l0 0c0 -3.8734512 -3.1400528 -7.013504 -7.013504 -7.013504z" fill-rule="evenodd"/><path stroke="#38761d" stroke-width="1.0" stroke-linejoin="round" stroke-linecap="butt" d="m119.94971 53.575943l-7.013504 0c-3.0517578E-5 0 -6.1035156E-5 1.1444092E-5 -8.392334E-5 3.4332275E-5c-2.2888184E-5 1.9073486E-5 -3.0517578E-5 4.9591064E-5 -3.0517578E-5 8.010864E-5l1.1444092E-4 14.243385c0 3.8734512 3.1400528 7.013504 7.013504 7.013504l7.013504 0l0 0c6.1035156E-5 0 1.1444092E-4 -4.5776367E-5 1.1444092E-4 -1.1444092E-4l-1.1444092E-4 -14.243385l0 0c0 -3.8734512 -3.1400528 -7.013504 -7.013504 -7.013504z" fill-rule="evenodd"/><path fill="#38761d" d="m138.18932 81.20126l7.013504 0c3.0517578E-5 0 6.1035156E-5 7.6293945E-6 9.1552734E-5 3.0517578E-5c1.5258789E-5 2.2888184E-5 3.0517578E-5 5.340576E-5 3.0517578E-5 8.392334E-5l-1.2207031E-4 14.243385c0 3.8734512 -3.1400452 7.013504 -7.013504 7.013504l-7.013504 0l0 0c-6.1035156E-5 0 -1.0681152E-4 -5.340576E-5 -1.0681152E-4 -1.1444092E-4l1.0681152E-4 -14.243385l0 0c0 -3.8734512 3.1400604 -7.013504 7.013504 -7.013504z" fill-rule="evenodd"/><path stroke="#38761d" stroke-width="1.0" stroke-linejoin="round" stroke-linecap="butt" d="m138.18932 81.20126l7.013504 0c3.0517578E-5 0 6.1035156E-5 7.6293945E-6 9.1552734E-5 3.0517578E-5c1.5258789E-5 2.2888184E-5 3.0517578E-5 5.340576E-5 3.0517578E-5 8.392334E-5l-1.2207031E-4 14.243385c0 3.8734512 -3.1400452 7.013504 -7.013504 7.013504l-7.013504 0l0 0c-6.1035156E-5 0 -1.0681152E-4 -5.340576E-5 -1.0681152E-4 -1.1444092E-4l1.0681152E-4 -14.243385l0 0c0 -3.8734512 3.1400604 -7.013504 7.013504 -7.013504z" fill-rule="evenodd"/><path fill="#38761d" d="m119.94967 81.20126l-7.013504 0c-3.0517578E-5 0 -6.1035156E-5 7.6293945E-6 -8.392334E-5 3.0517578E-5c-2.2888184E-5 2.2888184E-5 -3.0517578E-5 5.340576E-5 -3.0517578E-5 8.392334E-5l1.1444092E-4 14.243385c0 3.8734512 3.1400528 7.013504 7.013504 7.013504l7.013504 0l0 0c6.1035156E-5 0 1.1444092E-4 -5.340576E-5 1.1444092E-4 -1.1444092E-4l-1.1444092E-4 -14.243385l0 0c0 -3.8734512 -3.1400528 -7.013504 -7.013504 -7.013504z" fill-rule="evenodd"/><path stroke="#38761d" stroke-width="1.0" stroke-linejoin="round" stroke-linecap="butt" d="m119.94967 81.20126l-7.013504 0c-3.0517578E-5 0 -6.1035156E-5 7.6293945E-6 -8.392334E-5 3.0517578E-5c-2.2888184E-5 2.2888184E-5 -3.0517578E-5 5.340576E-5 -3.0517578E-5 8.392334E-5l1.1444092E-4 14.243385c0 3.8734512 3.1400528 7.013504 7.013504 7.013504l7.013504 0l0 0c6.1035156E-5 0 1.1444092E-4 -5.340576E-5 1.1444092E-4 -1.1444092E-4l-1.1444092E-4 -14.243385l0 0c0 -3.8734512 -3.1400528 -7.013504 -7.013504 -7.013504z" fill-rule="evenodd"/><path fill="#38761d" d="m138.18932 108.82672l7.013504 0c3.0517578E-5 0 6.1035156E-5 1.5258789E-5 9.1552734E-5 3.8146973E-5c1.5258789E-5 2.2888184E-5 3.0517578E-5 5.340576E-5 3.0517578E-5 8.392334E-5l-1.2207031E-4 14.243385c0 3.8734512 -3.1400452 7.0134964 -7.013504 7.0134964l-7.013504 0l0 0c-6.1035156E-5 0 -1.0681152E-4 -4.5776367E-5 -1.0681152E-4 -1.0681152E-4l1.0681152E-4 -14.243393l0 0c0 -3.8734512 3.1400604 -7.013504 7.013504 -7.013504z" fill-rule="evenodd"/><path stroke="#38761d" stroke-width="1.0" stroke-linejoin="round" stroke-linecap="butt" d="m138.18932 108.82672l7.013504 0c3.0517578E-5 0 6.1035156E-5 1.5258789E-5 9.1552734E-5 3.8146973E-5c1.5258789E-5 2.2888184E-5 3.0517578E-5 5.340576E-5 3.0517578E-5 8.392334E-5l-1.2207031E-4 14.243385c0 3.8734512 -3.1400452 7.0134964 -7.013504 7.0134964l-7.013504 0l0 0c-6.1035156E-5 0 -1.0681152E-4 -4.5776367E-5 -1.0681152E-4 -1.0681152E-4l1.0681152E-4 -14.243393l0 0c0 -3.8734512 3.1400604 -7.013504 7.013504 -7.013504z" fill-rule="evenodd"/><path fill="#38761d" d="m119.94967 108.82672l-7.013504 0c-3.0517578E-5 0 -6.1035156E-5 1.5258789E-5 -8.392334E-5 3.8146973E-5c-2.2888184E-5 2.2888184E-5 -3.0517578E-5 5.340576E-5 -3.0517578E-5 8.392334E-5l1.1444092E-4 14.243385c0 3.8734512 3.1400528 7.0134964 7.013504 7.0134964l7.013504 0l0 0c6.1035156E-5 0 1.1444092E-4 -4.5776367E-5 1.1444092E-4 -1.0681152E-4l-1.1444092E-4 -14.243393l0 0c0 -3.8734512 -3.1400528 -7.013504 -7.013504 -7.013504z" fill-rule="evenodd"/><path stroke="#38761d" stroke-width="1.0" stroke-linejoin="round" stroke-linecap="butt" d="m119.94967 108.82672l-7.013504 0c-3.0517578E-5 0 -6.1035156E-5 1.5258789E-5 -8.392334E-5 3.8146973E-5c-2.2888184E-5 2.2888184E-5 -3.0517578E-5 5.340576E-5 -3.0517578E-5 8.392334E-5l1.1444092E-4 14.243385c0 3.8734512 3.1400528 7.0134964 7.013504 7.0134964l7.013504 0l0 0c6.1035156E-5 0 1.1444092E-4 -4.5776367E-5 1.1444092E-4 -1.0681152E-4l-1.1444092E-4 -14.243393l0 0c0 -3.8734512 -3.1400528 -7.013504 -7.013504 -7.013504z" fill-rule="evenodd"/></g></svg>