<svg version="1.1" viewBox="0.0 0.0 153.6010498687664 153.6010498687664" fill="none" stroke="none" stroke-linecap="square" stroke-miterlimit="10" xmlns:xlink="http://www.w3.org/1999/xlink" xmlns="http://www.w3.org/2000/svg"><clipPath id="p.0"><path d="m0 0l153.60104 0l0 153.60104l-153.60104 0l0 -153.60104z" clip-rule="nonzero"/></clipPath><g clip-path="url(#p.0)"><path fill="#000000" fill-opacity="0.0" d="m0 0l153.60104 0l0 153.60104l-153.60104 0z" fill-rule="evenodd"/><path fill="#000000" fill-opacity="0.0" d="m4.8005247 76.80057l144.0 0" fill-rule="evenodd"/><path stroke="#595959" stroke-width="8.0" stroke-linejoin="round" stroke-linecap="butt" d="m4.8005247 76.80057l144.0 0" fill-rule="evenodd"/><path fill="#000000" fill-opacity="0.0" d="m4.8005247 97.36408l144.0 0" fill-rule="evenodd"/><path stroke="#595959" stroke-width="8.0" stroke-linejoin="round" stroke-linecap="butt" d="m4.8005247 97.36408l144.0 0" fill-rule="evenodd"/><path fill="#000000" fill-opacity="0.0" d="m4.8005247 56.23697l144.0 0" fill-rule="evenodd"/><path stroke="#595959" stroke-width="8.0" stroke-linejoin="round" stroke-linecap="butt" d="m4.8005247 56.23697l144.0 0" fill-rule="evenodd"/><path fill="#000000" fill-opacity="0.0" d="m76.80048 4.8005247l0 144.0" fill-rule="evenodd"/><path stroke="#595959" stroke-width="8.0" stroke-linejoin="round" stroke-linecap="butt" d="m76.80048 4.8005247l0 144.0" fill-rule="evenodd"/><path fill="#000000" fill-opacity="0.0" d="m56.23697 4.8005247l0 144.0" fill-rule="evenodd"/><path stroke="#595959" stroke-width="8.0" stroke-linejoin="round" stroke-linecap="butt" d="m56.23697 4.8005247l0 144.0" fill-rule="evenodd"/><path fill="#000000" fill-opacity="0.0" d="m97.36408 4.8005247l0 144.0" fill-rule="evenodd"/><path stroke="#595959" stroke-width="8.0" stroke-linejoin="round" stroke-linecap="butt" d="m97.36408 4.8005247l0 144.0" fill-rule="evenodd"/><path fill="#ffffff" d="m25.371954 32.038754l0 0c0 -3.6819477 2.984808 -6.6667557 6.666754 -6.6667557l89.53264 0c1.7681351 0 3.4638443 0.70238876 4.7141037 1.9526482c1.2502594 1.2502594 1.952652 2.9459743 1.952652 4.7141075l0 89.53264c0 3.6819458 -2.9848099 6.6667557 -6.6667557 6.6667557l-89.53264 0l0 0c-3.6819458 0 -6.666754 -2.9848099 -6.666754 -6.6667557z" fill-rule="evenodd"/><path stroke="#595959" stroke-width="4.0" stroke-linejoin="round" stroke-linecap="butt" d="m25.371954 32.038754l0 0c0 -3.6819477 2.984808 -6.6667557 6.666754 -6.6667557l89.53264 0c1.7681351 0 3.4638443 0.70238876 4.7141037 1.9526482c1.2502594 1.2502594 1.952652 2.9459743 1.952652 4.7141075l0 89.53264c0 3.6819458 -2.9848099 6.6667557 -6.6667557 6.6667557l-89.53264 0l0 0c-3.6819458 0 -6.666754 -2.9848099 -6.666754 -6.6667557z" fill-rule="evenodd"/><path fill="#000000" fill-opacity="0.0" d="m115.93409 76.80038l-78.23622 0" fill-rule="evenodd"/><path stroke="#595959" stroke-width="4.0" stroke-linejoin="round" stroke-linecap="butt" d="m115.93409 76.80038l-78.23622 0" fill-rule="evenodd"/><path fill="#595959" d="m118.87099 73.86698l0 0c1.6177139 0 2.9291306 1.3114166 2.9291306 2.9291306l0 0c0 0.77685547 -0.30860138 1.5218964 -0.8579178 2.0712128c-0.54932404 0.5493164 -1.2943573 0.8579254 -2.0712128 0.8579254l0 0c-1.6177139 0 -2.9291382 -1.3114243 -2.9291382 -2.9291382l0 0c0 -1.6177139 1.3114243 -2.9291306 2.9291382 -2.9291306z" fill-rule="evenodd"/><path stroke="#595959" stroke-width="4.0" stroke-linejoin="round" stroke-linecap="butt" d="m118.87099 73.86698l0 0c1.6177139 0 2.9291306 1.3114166 2.9291306 2.9291306l0 0c0 0.77685547 -0.30860138 1.5218964 -0.8579178 2.0712128c-0.54932404 0.5493164 -1.2943573 0.8579254 -2.0712128 0.8579254l0 0c-1.6177139 0 -2.9291382 -1.3114243 -2.9291382 -2.9291382l0 0c0 -1.6177139 1.3114243 -2.9291306 2.9291382 -2.9291306z" fill-rule="evenodd"/><path fill="#595959" d="m113.84544 90.63012l0 0c1.148056 1.148056 1.148056 3.0094223 0 4.1574783l0 0c-0.5513153 0.5513153 -1.2990646 0.86104584 -2.078743 0.86104584c-0.77967834 0 -1.52742 -0.30973053 -2.078743 -0.86104584l0 0c-1.148056 -1.148056 -1.148056 -3.0094223 0 -4.1574783l0 0c1.1480637 -1.148056 3.00943 -1.148056 4.157486 0z" fill-rule="evenodd"/><path stroke="#595959" stroke-width="4.0" stroke-linejoin="round" stroke-linecap="butt" d="m113.84544 90.63012l0 0c1.148056 1.148056 1.148056 3.0094223 0 4.1574783l0 0c-0.5513153 0.5513153 -1.2990646 0.86104584 -2.078743 0.86104584c-0.77967834 0 -1.52742 -0.30973053 -2.078743 -0.86104584l0 0c-1.148056 -1.148056 -1.148056 -3.0094223 0 -4.1574783l0 0c1.1480637 -1.148056 3.00943 -1.148056 4.157486 0z" fill-rule="evenodd"/><path fill="#000000" fill-opacity="0.0" d="m95.867226 76.80043l13.858269 13.858269" fill-rule="evenodd"/><path stroke="#595959" stroke-width="4.0" stroke-linejoin="round" stroke-linecap="butt" d="m95.867226 76.80043l13.858269 13.858269" fill-rule="evenodd"/><path fill="#595959" d="m113.84544 62.970695l0 0c1.148056 -1.148056 1.148056 -3.009426 0 -4.157482l0 0c-0.5513153 -0.5513153 -1.2990646 -0.861042 -2.078743 -0.861042c-0.77967834 0 -1.52742 0.30972672 -2.078743 0.861042l0 0c-1.148056 1.148056 -1.148056 3.009426 0 4.157482l0 0c1.148056 1.148056 3.00943 1.148056 4.157486 0z" fill-rule="evenodd"/><path stroke="#595959" stroke-width="4.0" stroke-linejoin="round" stroke-linecap="butt" d="m113.84544 62.970695l0 0c1.148056 -1.148056 1.148056 -3.009426 0 -4.157482l0 0c-0.5513153 -0.5513153 -1.2990646 -0.861042 -2.078743 -0.861042c-0.77967834 0 -1.52742 0.30972672 -2.078743 0.861042l0 0c-1.148056 1.148056 -1.148056 3.009426 0 4.157482l0 0c1.148056 1.148056 3.00943 1.148056 4.157486 0z" fill-rule="evenodd"/><path fill="#000000" fill-opacity="0.0" d="m95.867226 76.800385l13.858269 -13.858269" fill-rule="evenodd"/><path stroke="#595959" stroke-width="4.0" stroke-linejoin="round" stroke-linecap="butt" d="m95.867226 76.800385l13.858269 -13.858269" fill-rule="evenodd"/><path fill="#000000" fill-opacity="0.0" d="m37.66615 76.80038l78.29921 0" fill-rule="evenodd"/><path stroke="#595959" stroke-width="4.0" stroke-linejoin="round" stroke-linecap="butt" d="m37.66615 76.80038l78.29921 0" fill-rule="evenodd"/><path fill="#595959" d="m34.729256 73.86698l0 0c-1.6177177 0 -2.9291363 1.3114166 -2.9291363 2.9291306l0 0c0 0.77685547 0.3086033 1.5218887 0.8579235 2.0712128c0.5493202 0.5493164 1.2943573 0.8579254 2.0712128 0.8579254l0 0c1.6177139 0 2.9291306 -1.3114243 2.9291306 -2.9291382l0 0c0 -1.6177139 -1.3114166 -2.9291306 -2.9291306 -2.9291306z" fill-rule="evenodd"/><path stroke="#595959" stroke-width="4.0" stroke-linejoin="round" stroke-linecap="butt" d="m34.729256 73.86698l0 0c-1.6177177 0 -2.9291363 1.3114166 -2.9291363 2.9291306l0 0c0 0.77685547 0.3086033 1.5218887 0.8579235 2.0712128c0.5493202 0.5493164 1.2943573 0.8579254 2.0712128 0.8579254l0 0c1.6177139 0 2.9291306 -1.3114243 2.9291306 -2.9291382l0 0c0 -1.6177139 -1.3114166 -2.9291306 -2.9291306 -2.9291306z" fill-rule="evenodd"/><path fill="#595959" d="m39.7548 90.63012l0 0c-1.148056 1.148056 -1.148056 3.0094223 0 4.1574783l0 0c0.5513153 0.5513153 1.2990608 0.86104584 2.0787392 0.86104584c0.77967834 0 1.5274239 -0.30973053 2.0787392 -0.86104584l0 0c1.1480598 -1.148056 1.1480598 -3.0094223 0 -4.1574783l0 0c-1.148056 -1.148056 -3.0094223 -1.148056 -4.1574783 0z" fill-rule="evenodd"/><path stroke="#595959" stroke-width="4.0" stroke-linejoin="round" stroke-linecap="butt" d="m39.7548 90.63012l0 0c-1.148056 1.148056 -1.148056 3.0094223 0 4.1574783l0 0c0.5513153 0.5513153 1.2990608 0.86104584 2.0787392 0.86104584c0.77967834 0 1.5274239 -0.30973053 2.0787392 -0.86104584l0 0c1.1480598 -1.148056 1.1480598 -3.0094223 0 -4.1574783l0 0c-1.148056 -1.148056 -3.0094223 -1.148056 -4.1574783 0z" fill-rule="evenodd"/><path fill="#000000" fill-opacity="0.0" d="m57.73301 76.80043l-13.858265 13.858269" fill-rule="evenodd"/><path stroke="#595959" stroke-width="4.0" stroke-linejoin="round" stroke-linecap="butt" d="m57.73301 76.80043l-13.858265 13.858269" fill-rule="evenodd"/><path fill="#595959" d="m39.7548 62.970695l0 0c-1.148056 -1.148056 -1.148056 -3.009426 0 -4.157482l0 0c0.5513153 -0.5513153 1.2990608 -0.861042 2.0787392 -0.861042c0.77967834 0 1.5274239 0.30972672 2.0787392 0.861042l0 0c1.1480598 1.148056 1.1480598 3.009426 0 4.157482l0 0c-1.148056 1.148056 -3.0094223 1.148056 -4.1574783 0z" fill-rule="evenodd"/><path stroke="#595959" stroke-width="4.0" stroke-linejoin="round" stroke-linecap="butt" d="m39.7548 62.970695l0 0c-1.148056 -1.148056 -1.148056 -3.009426 0 -4.157482l0 0c0.5513153 -0.5513153 1.2990608 -0.861042 2.0787392 -0.861042c0.77967834 0 1.5274239 0.30972672 2.0787392 0.861042l0 0c1.1480598 1.148056 1.1480598 3.009426 0 4.157482l0 0c-1.148056 1.148056 -3.0094223 1.148056 -4.1574783 0z" fill-rule="evenodd"/><path fill="#000000" fill-opacity="0.0" d="m57.73301 76.800385l-13.858265 -13.858269" fill-rule="evenodd"/><path stroke="#595959" stroke-width="4.0" stroke-linejoin="round" stroke-linecap="butt" d="m57.73301 76.800385l-13.858265 -13.858269" fill-rule="evenodd"/><path fill="#000000" fill-opacity="0.0" d="m76.80042 115.93438l0 -78.23622" fill-rule="evenodd"/><path stroke="#595959" stroke-width="4.0" stroke-linejoin="round" stroke-linecap="butt" d="m76.80042 115.93438l0 -78.23622" fill-rule="evenodd"/><path fill="#595959" d="m79.73382 118.87127l0 0c0 1.6177216 -1.3114243 2.9291382 -2.9291382 2.9291382l0 0c-0.77685547 0 -1.5218887 -0.30860138 -2.0712128 -0.8579254c-0.5493164 -0.5493164 -0.8579178 -1.2943573 -0.8579178 -2.0712128l0 0c0 -1.6177139 1.3114166 -2.9291306 2.9291306 -2.9291306l0 0c1.6177139 0 2.9291382 1.3114166 2.9291382 2.9291306z" fill-rule="evenodd"/><path stroke="#595959" stroke-width="4.0" stroke-linejoin="round" stroke-linecap="butt" d="m79.73382 118.87127l0 0c0 1.6177216 -1.3114243 2.9291382 -2.9291382 2.9291382l0 0c-0.77685547 0 -1.5218887 -0.30860138 -2.0712128 -0.8579254c-0.5493164 -0.5493164 -0.8579178 -1.2943573 -0.8579178 -2.0712128l0 0c0 -1.6177139 1.3114166 -2.9291306 2.9291306 -2.9291306l0 0c1.6177139 0 2.9291382 1.3114166 2.9291382 2.9291306z" fill-rule="evenodd"/><path fill="#595959" d="m62.970676 113.845726l0 0c-1.1480598 1.148056 -3.009426 1.148056 -4.157482 0l0 0c-0.5513153 -0.5513153 -0.861042 -1.299057 -0.861042 -2.0787354c0 -0.77967834 0.30972672 -1.5274277 0.861042 -2.078743l0 0c1.148056 -1.148056 3.0094223 -1.148056 4.157482 0l0 0c1.1480522 1.148056 1.1480522 3.0094223 0 4.1574783z" fill-rule="evenodd"/><path stroke="#595959" stroke-width="4.0" stroke-linejoin="round" stroke-linecap="butt" d="m62.970676 113.845726l0 0c-1.1480598 1.148056 -3.009426 1.148056 -4.157482 0l0 0c-0.5513153 -0.5513153 -0.861042 -1.299057 -0.861042 -2.0787354c0 -0.77967834 0.30972672 -1.5274277 0.861042 -2.078743l0 0c1.148056 -1.148056 3.0094223 -1.148056 4.157482 0l0 0c1.1480522 1.148056 1.1480522 3.0094223 0 4.1574783z" fill-rule="evenodd"/><path fill="#000000" fill-opacity="0.0" d="m76.80036 95.867516l-13.858265 13.858269" fill-rule="evenodd"/><path stroke="#595959" stroke-width="4.0" stroke-linejoin="round" stroke-linecap="butt" d="m76.80036 95.867516l-13.858265 13.858269" fill-rule="evenodd"/><path fill="#595959" d="m90.630104 113.845726l0 0c1.148056 1.148056 3.0094223 1.148056 4.1574783 0l0 0c0.5513153 -0.5513153 0.8610382 -1.299057 0.8610382 -2.0787354c0 -0.77967834 -0.3097229 -1.5274277 -0.8610382 -2.078743l0 0c-1.148056 -1.148056 -3.0094223 -1.148056 -4.1574783 0l0 0c-1.1480637 1.148056 -1.1480637 3.0094223 0 4.1574783z" fill-rule="evenodd"/><path stroke="#595959" stroke-width="4.0" stroke-linejoin="round" stroke-linecap="butt" d="m90.630104 113.845726l0 0c1.148056 1.148056 3.0094223 1.148056 4.1574783 0l0 0c0.5513153 -0.5513153 0.8610382 -1.299057 0.8610382 -2.0787354c0 -0.77967834 -0.3097229 -1.5274277 -0.8610382 -2.078743l0 0c-1.148056 -1.148056 -3.0094223 -1.148056 -4.1574783 0l0 0c-1.1480637 1.148056 -1.1480637 3.0094223 0 4.1574783z" fill-rule="evenodd"/><path fill="#000000" fill-opacity="0.0" d="m76.800415 95.867516l13.858261 13.858269" fill-rule="evenodd"/><path stroke="#595959" stroke-width="4.0" stroke-linejoin="round" stroke-linecap="butt" d="m76.800415 95.867516l13.858261 13.858269" fill-rule="evenodd"/><path fill="#000000" fill-opacity="0.0" d="m76.80042 37.66644l0 78.29921" fill-rule="evenodd"/><path stroke="#595959" stroke-width="4.0" stroke-linejoin="round" stroke-linecap="butt" d="m76.80042 37.66644l0 78.29921" fill-rule="evenodd"/><path fill="#595959" d="m79.73382 34.72954l0 0c0 -1.6177177 -1.3114243 -2.9291344 -2.9291382 -2.9291344l0 0c-0.77685547 0 -1.5218887 0.3086052 -2.0712128 0.8579216c-0.5493164 0.5493202 -0.8579178 1.2943573 -0.8579178 2.0712128l0 0c0 1.6177139 1.3114166 2.9291344 2.9291306 2.9291344l0 0c1.6177139 0 2.9291382 -1.3114204 2.9291382 -2.9291344z" fill-rule="evenodd"/><path stroke="#595959" stroke-width="4.0" stroke-linejoin="round" stroke-linecap="butt" d="m79.73382 34.72954l0 0c0 -1.6177177 -1.3114243 -2.9291344 -2.9291382 -2.9291344l0 0c-0.77685547 0 -1.5218887 0.3086052 -2.0712128 0.8579216c-0.5493164 0.5493202 -0.8579178 1.2943573 -0.8579178 2.0712128l0 0c0 1.6177139 1.3114166 2.9291344 2.9291306 2.9291344l0 0c1.6177139 0 2.9291382 -1.3114204 2.9291382 -2.9291344z" fill-rule="evenodd"/><path fill="#595959" d="m62.970676 39.755085l0 0c-1.1480598 -1.148056 -3.009426 -1.148056 -4.157482 0l0 0c-0.5513153 0.5513153 -0.861042 1.2990608 -0.861042 2.0787392c0 0.77968216 0.30972672 1.5274239 0.861042 2.078743l0 0c1.148056 1.148056 3.0094223 1.148056 4.157482 0l0 0c1.1480522 -1.148056 1.1480522 -3.009426 0 -4.157482z" fill-rule="evenodd"/><path stroke="#595959" stroke-width="4.0" stroke-linejoin="round" stroke-linecap="butt" d="m62.970676 39.755085l0 0c-1.1480598 -1.148056 -3.009426 -1.148056 -4.157482 0l0 0c-0.5513153 0.5513153 -0.861042 1.2990608 -0.861042 2.0787392c0 0.77968216 0.30972672 1.5274239 0.861042 2.078743l0 0c1.148056 1.148056 3.0094223 1.148056 4.157482 0l0 0c1.1480522 -1.148056 1.1480522 -3.009426 0 -4.157482z" fill-rule="evenodd"/><path fill="#000000" fill-opacity="0.0" d="m76.80036 57.7333l-13.858265 -13.858269" fill-rule="evenodd"/><path stroke="#595959" stroke-width="4.0" stroke-linejoin="round" stroke-linecap="butt" d="m76.80036 57.7333l-13.858265 -13.858269" fill-rule="evenodd"/><path fill="#595959" d="m90.630104 39.755085l0 0c1.148056 -1.148056 3.0094223 -1.148056 4.1574783 0l0 0c0.5513153 0.5513153 0.8610382 1.2990608 0.8610382 2.0787392c0 0.77968216 -0.3097229 1.5274239 -0.8610382 2.078743l0 0c-1.148056 1.148056 -3.0094223 1.148056 -4.1574783 0l0 0c-1.1480637 -1.148056 -1.1480637 -3.009426 0 -4.157482z" fill-rule="evenodd"/><path stroke="#595959" stroke-width="4.0" stroke-linejoin="round" stroke-linecap="butt" d="m90.630104 39.755085l0 0c1.148056 -1.148056 3.0094223 -1.148056 4.1574783 0l0 0c0.5513153 0.5513153 0.8610382 1.2990608 0.8610382 2.0787392c0 0.77968216 -0.3097229 1.5274239 -0.8610382 2.078743l0 0c-1.148056 1.148056 -3.0094223 1.148056 -4.1574783 0l0 0c-1.1480637 -1.148056 -1.1480637 -3.009426 0 -4.157482z" fill-rule="evenodd"/><path fill="#000000" fill-opacity="0.0" d="m76.800415 57.7333l13.858261 -13.858269" fill-rule="evenodd"/><path stroke="#595959" stroke-width="4.0" stroke-linejoin="round" stroke-linecap="butt" d="m76.800415 57.7333l13.858261 -13.858269" fill-rule="evenodd"/><path fill="#595959" d="m79.73328 76.80456l0 0c0 1.6177139 -1.3114166 2.9291306 -2.9291306 2.9291306l0 0c-0.77685547 0 -1.5218887 -0.30860138 -2.0712128 -0.8579254c-0.5493164 -0.5493164 -0.8579178 -1.2943497 -0.8579178 -2.0712051l0 0c0 -1.6177216 1.3114166 -2.9291382 2.9291306 -2.9291382l0 0c1.6177139 0 2.9291306 1.3114166 2.9291306 2.9291382z" fill-rule="evenodd"/><path stroke="#595959" stroke-width="4.0" stroke-linejoin="round" stroke-linecap="butt" d="m79.73328 76.80456l0 0c0 1.6177139 -1.3114166 2.9291306 -2.9291306 2.9291306l0 0c-0.77685547 0 -1.5218887 -0.30860138 -2.0712128 -0.8579254c-0.5493164 -0.5493164 -0.8579178 -1.2943497 -0.8579178 -2.0712051l0 0c0 -1.6177216 1.3114166 -2.9291382 2.9291306 -2.9291382l0 0c1.6177139 0 2.9291306 1.3114166 2.9291306 2.9291382z" fill-rule="evenodd"/></g></svg>