<svg version="1.1" viewBox="0.0 0.0 153.6010498687664 153.6010498687664" fill="none" stroke="none" stroke-linecap="square" stroke-miterlimit="10" xmlns:xlink="http://www.w3.org/1999/xlink" xmlns="http://www.w3.org/2000/svg"><clipPath id="p.0"><path d="m0 0l153.60104 0l0 153.60104l-153.60104 0l0 -153.60104z" clip-rule="nonzero"/></clipPath><g clip-path="url(#p.0)"><path fill="#000000" fill-opacity="0.0" d="m0 0l153.60104 0l0 153.60104l-153.60104 0z" fill-rule="evenodd"/><path fill="#e69138" d="m4.8005247 28.801004l0 0c0 -13.255098 10.745381 -24.00048 24.00048 -24.00048l95.99904 0l0 0c6.3653336 0 12.469948 2.528615 16.97091 7.029578c4.5009613 4.500963 7.0295715 10.605579 7.0295715 16.970901l0 95.99904c0 13.255104 -10.745377 24.00048 -24.00048 24.00048l-95.99904 0c-13.255098 0 -24.00048 -10.745377 -24.00048 -24.00048z" fill-rule="evenodd"/><path stroke="#e69138" stroke-width="1.0" stroke-linejoin="round" stroke-linecap="butt" d="m4.8005247 28.801004l0 0c0 -13.255098 10.745381 -24.00048 24.00048 -24.00048l95.99904 0l0 0c6.3653336 0 12.469948 2.528615 16.97091 7.029578c4.5009613 4.500963 7.0295715 10.605579 7.0295715 16.970901l0 95.99904c0 13.255104 -10.745377 24.00048 -24.00048 24.00048l-95.99904 0c-13.255098 0 -24.00048 -10.745377 -24.00048 -24.00048z" fill-rule="evenodd"/><path fill="#000000" fill-opacity="0.0" d="m76.79977 26.400131c0 18.897636 8.992126 28.346458 17.984253 37.795273c8.992126 9.448822 17.984253 18.897644 17.984253 37.79528" fill-rule="evenodd"/><path stroke="#ffffff" stroke-width="8.0" stroke-linejoin="round" stroke-linecap="butt" d="m76.79977 26.400131c0 18.897636 8.992126 28.346458 17.984253 37.795273c8.992126 9.448822 17.984253 18.897644 17.984253 37.79528" fill-rule="evenodd"/><path fill="#000000" fill-opacity="0.0" d="m76.79977 26.400131c0 18.897636 -8.984253 28.346458 -17.968502 37.795273c-8.984253 9.448822 -17.968502 18.897644 -17.968502 37.79528" fill-rule="evenodd"/><path stroke="#ffffff" stroke-width="8.0" stroke-linejoin="round" stroke-linecap="butt" d="m76.79977 26.400131c0 18.897636 -8.984253 28.346458 -17.968502 37.795273c-8.984253 9.448822 -17.968502 18.897644 -17.968502 37.79528" fill-rule="evenodd"/><path fill="#000000" fill-opacity="0.0" d="m40.83577 102.00015c0 11.564293 8.992126 19.975052 17.984253 23.128593c8.992126 3.1535416 17.984253 1.0498734 17.984253 2.0997543" fill-rule="evenodd"/><path stroke="#ffffff" stroke-width="8.0" stroke-linejoin="round" stroke-linecap="butt" d="m40.83577 102.00015c0 11.564293 8.992126 19.975052 17.984253 23.128593c8.992126 3.1535416 17.984253 1.0498734 17.984253 2.0997543" fill-rule="evenodd"/><path fill="#000000" fill-opacity="0.0" d="m112.76377 102.00015c0 11.564293 -8.984253 19.975052 -17.968506 23.128593c-8.984253 3.1535416 -17.968506 1.0498734 -17.968506 2.0997543" fill-rule="evenodd"/><path stroke="#ffffff" stroke-width="8.0" stroke-linejoin="round" stroke-linecap="butt" d="m112.76377 102.00015c0 11.564293 -8.984253 19.975052 -17.968506 23.128593c-8.984253 3.1535416 -17.968506 1.0498734 -17.968506 2.0997543" fill-rule="evenodd"/><path fill="#000000" fill-opacity="0.0" d="m76.79977 55.20013c0 13.503941 5.401581 20.255909 10.803154 27.007877c5.401573 6.7519684 10.803146 13.503937 10.803146 27.007874" fill-rule="evenodd"/><path stroke="#ffffff" stroke-width="8.0" stroke-linejoin="round" stroke-linecap="butt" d="m76.79977 55.20013c0 13.503941 5.401581 20.255909 10.803154 27.007877c5.401573 6.7519684 10.803146 13.503937 10.803146 27.007874" fill-rule="evenodd"/><path fill="#000000" fill-opacity="0.0" d="m76.79977 55.20013c0 13.503941 -5.3936996 20.255909 -10.787399 27.007877c-5.3936996 6.7519684 -10.787403 13.503937 -10.787403 27.007874" fill-rule="evenodd"/><path stroke="#ffffff" stroke-width="8.0" stroke-linejoin="round" stroke-linecap="butt" d="m76.79977 55.20013c0 13.503941 -5.3936996 20.255909 -10.787399 27.007877c-5.3936996 6.7519684 -10.787403 13.503937 -10.787403 27.007874" fill-rule="evenodd"/><path fill="#000000" fill-opacity="0.0" d="m55.22137 109.200134c0 8.258148 5.401573 14.264328 10.80315 16.516296c5.401573 2.2519684 10.803146 0.74972534 10.803146 1.4994507" fill-rule="evenodd"/><path stroke="#ffffff" stroke-width="8.0" stroke-linejoin="round" stroke-linecap="butt" d="m55.22137 109.200134c0 8.258148 5.401573 14.264328 10.80315 16.516296c5.401573 2.2519684 10.803146 0.74972534 10.803146 1.4994507" fill-rule="evenodd"/><path fill="#000000" fill-opacity="0.0" d="m98.37817 109.200134c0 8.258148 -5.3936996 14.264328 -10.787399 16.516296c-5.3936996 2.2519684 -10.787399 0.74972534 -10.787399 1.4994507" fill-rule="evenodd"/><path stroke="#ffffff" stroke-width="8.0" stroke-linejoin="round" stroke-linecap="butt" d="m98.37817 109.200134c0 8.258148 -5.3936996 14.264328 -10.787399 16.516296c-5.3936996 2.2519684 -10.787399 0.74972534 -10.787399 1.4994507" fill-rule="evenodd"/></g></svg>