<svg version="1.1" viewBox="0.0 0.0 528.0 264.0" fill="none" stroke="none" stroke-linecap="square" stroke-miterlimit="10" xmlns:xlink="http://www.w3.org/1999/xlink" xmlns="http://www.w3.org/2000/svg"><clipPath id="p.0"><path d="m0 0l528.0 0l0 264.0l-528.0 0l0 -264.0z" clip-rule="nonzero"/></clipPath><g clip-path="url(#p.0)"><path fill="#000000" fill-opacity="0.0" d="m0 0l528.0 0l0 264.0l-528.0 0z" fill-rule="evenodd"/><path fill="#ffffff" d="m506.71393 3.6837025l0 110.96063l-485.82678 0l0 -110.96063z" fill-rule="evenodd"/><path stroke="#212121" stroke-width="8.0" stroke-linejoin="round" stroke-linecap="butt" d="m506.71393 3.6837025l0 110.96063l-485.82678 0l0 -110.96063z" fill-rule="evenodd"/><path fill="#000000" fill-opacity="0.0" d="m506.49387 59.217197l-66.96063 0" fill-rule="evenodd"/><path stroke="#212121" stroke-width="8.0" stroke-linejoin="round" stroke-linecap="butt" d="m506.49387 59.217197l-66.96063 0" fill-rule="evenodd"/><path fill="#000000" fill-opacity="0.0" d="m459.03354 3.7131174l-66.96063 0" fill-rule="evenodd"/><path stroke="#212121" stroke-width="8.0" stroke-linejoin="round" stroke-linecap="butt" d="m459.03354 3.7131174l-66.96063 0" fill-rule="evenodd"/><path fill="#000000" fill-opacity="0.0" d="m411.57324 59.217197l-66.96063 0" fill-rule="evenodd"/><path stroke="#212121" stroke-width="8.0" stroke-linejoin="round" stroke-linecap="butt" d="m411.57324 59.217197l-66.96063 0" fill-rule="evenodd"/><path fill="#000000" fill-opacity="0.0" d="m344.72525 59.217197c11.921265 0 17.881897 -13.858269 23.84253 -27.716536c5.9606323 -13.858269 11.921265 -27.716536 23.842499 -27.716536" fill-rule="evenodd"/><path stroke="#212121" stroke-width="8.0" stroke-linejoin="round" stroke-linecap="butt" d="m344.72525 59.217197c11.921265 0 17.881897 -13.858269 23.84253 -27.716536c5.9606323 -13.858269 11.921265 -27.716536 23.842499 -27.716536" fill-rule="evenodd"/><path fill="#000000" fill-opacity="0.0" d="m459.03354 3.7120512c11.921265 0 17.881897 13.858267 23.84253 27.716536c5.9606323 13.858267 11.921265 27.716536 23.84253 27.716536" fill-rule="evenodd"/><path stroke="#212121" stroke-width="8.0" stroke-linejoin="round" stroke-linecap="butt" d="m459.03354 3.7120512c11.921265 0 17.881897 13.858267 23.84253 27.716536c5.9606323 13.858267 11.921265 27.716536 23.84253 27.716536" fill-rule="evenodd"/><path fill="#000000" fill-opacity="0.0" d="m411.57324 59.216125c11.921265 0 17.881897 13.858269 23.842499 27.716537c5.9606323 13.858269 11.921265 27.716537 23.84253 27.716537" fill-rule="evenodd"/><path stroke="#212121" stroke-width="8.0" stroke-linejoin="round" stroke-linecap="butt" d="m411.57324 59.216125c11.921265 0 17.881897 13.858269 23.842499 27.716537c5.9606323 13.858269 11.921265 27.716537 23.84253 27.716537" fill-rule="evenodd"/><path fill="#000000" fill-opacity="0.0" d="m182.6394 59.327198l65.51181 0" fill-rule="evenodd"/><path stroke="#212121" stroke-width="8.0" stroke-linejoin="round" stroke-linecap="butt" d="m182.6394 59.327198l65.51181 0" fill-rule="evenodd"/><path fill="#000000" fill-opacity="0.0" d="m313.53317 114.69025l90.70865 0" fill-rule="evenodd"/><path stroke="#212121" stroke-width="8.0" stroke-linejoin="round" stroke-linecap="butt" d="m313.53317 114.69025l90.70865 0" fill-rule="evenodd"/><path fill="#000000" fill-opacity="0.0" d="m232.24023 114.69056c-11.64566 0 -17.468506 -13.858269 -23.291336 -27.716537c-5.82283 -13.858261 -11.645676 -27.716534 -23.291336 -27.716534" fill-rule="evenodd"/><path stroke="#212121" stroke-width="8.0" stroke-linejoin="round" stroke-linecap="butt" d="m232.24023 114.69056c-11.64566 0 -17.468506 -13.858269 -23.291336 -27.716537c-5.82283 -13.858261 -11.645676 -27.716534 -23.291336 -27.716534" fill-rule="evenodd"/><path fill="#000000" fill-opacity="0.0" d="m294.78726 3.963838c-11.64566 0 -17.468506 13.858267 -23.29132 27.716536c-5.8228455 13.858269 -11.645691 27.716534 -23.291351 27.716534" fill-rule="evenodd"/><path stroke="#212121" stroke-width="8.0" stroke-linejoin="round" stroke-linecap="butt" d="m294.78726 3.963838c-11.64566 0 -17.468506 13.858267 -23.29132 27.716536c-5.8228455 13.858269 -11.645691 27.716534 -23.291351 27.716534" fill-rule="evenodd"/><path fill="#000000" fill-opacity="0.0" d="m229.20271 3.6824148l65.511826 0" fill-rule="evenodd"/><path stroke="#212121" stroke-width="8.0" stroke-linejoin="round" stroke-linecap="butt" d="m229.20271 3.6824148l65.511826 0" fill-rule="evenodd"/><path fill="#000000" fill-opacity="0.0" d="m344.40112 59.333267c-11.64566 0 -17.468506 13.858269 -23.291351 27.716537c-5.822815 13.858269 -11.64566 27.716537 -23.29132 27.716537" fill-rule="evenodd"/><path stroke="#212121" stroke-width="8.0" stroke-linejoin="round" stroke-linecap="butt" d="m344.40112 59.333267c-11.64566 0 -17.468506 13.858269 -23.291351 27.716537c-5.822815 13.858269 -11.64566 27.716537 -23.29132 27.716537" fill-rule="evenodd"/><path fill="#000000" fill-opacity="0.0" d="m101.705925 59.29382l-80.8189 0" fill-rule="evenodd"/><path stroke="#212121" stroke-width="8.0" stroke-linejoin="round" stroke-linecap="butt" d="m101.705925 59.29382l-80.8189 0" fill-rule="evenodd"/><path fill="#000000" fill-opacity="0.0" d="m182.59023 59.29382l-80.8189 0" fill-rule="evenodd"/><path stroke="#212121" stroke-width="8.0" stroke-linejoin="round" stroke-linecap="butt" d="m182.59023 59.29382l-80.8189 0" fill-rule="evenodd"/><path fill="#000000" fill-opacity="0.0" d="m101.705925 59.29382c17.11023 0 25.665352 -13.858265 34.220467 -27.716534c8.555115 -13.858269 17.110245 -27.716536 34.220474 -27.716536" fill-rule="evenodd"/><path stroke="#212121" stroke-width="8.0" stroke-linejoin="round" stroke-linecap="butt" d="m101.705925 59.29382c17.11023 0 25.665352 -13.858265 34.220467 -27.716534c8.555115 -13.858269 17.110245 -27.716536 34.220474 -27.716536" fill-rule="evenodd"/><path fill="#000000" fill-opacity="0.0" d="m89.286674 114.7979c-17.11023 0 -25.665352 -13.858261 -34.22047 -27.71653c-8.555119 -13.858269 -17.110233 -27.716537 -34.22047 -27.716537" fill-rule="evenodd"/><path stroke="#212121" stroke-width="8.0" stroke-linejoin="round" stroke-linecap="butt" d="m89.286674 114.7979c-17.11023 0 -25.665352 -13.858261 -34.22047 -27.71653c-8.555119 -13.858269 -17.110233 -27.716537 -34.22047 -27.716537" fill-rule="evenodd"/><path fill="#000000" fill-opacity="0.0" d="m8.787401 114.86877l510.42517 0l0 145.44882l-510.42517 0z" fill-rule="evenodd"/><path fill="#212121" d="m109.88115 141.39626l0 82.3125l-7.75 0l0 -66.765625l-34.65625 70.984375l-34.45312 -70.9375l0 66.71875l-7.437502 0l0 -82.3125l8.500002 0l33.70312 69.203125l33.796875 -69.203125l8.296875 0zm73.647995 83.765625l-1.03125 0q-10.453125 0 -17.703125 -7.28125q-7.234375 -7.296875 -7.234375 -18.265625l0 -58.21875l7.75 0l0 58.109375q0 7.96875 5.09375 13.15625q5.09375 5.171875 12.609375 5.171875q7.515625 0 12.5625 -5.125q5.046875 -5.140625 5.046875 -13.203125l0 -58.109375l7.734375 0l0 58.0q0 11.09375 -7.234375 18.4375q-7.21875 7.328125 -17.59375 7.328125zm101.8475 -31.203125l0 -7.328125l33.546875 0l0 31.546875q-10.6875 6.671875 -22.75 6.671875l-1.15625 0q-11.3125 0 -21.0625 -5.90625q-9.7500305 -5.921875 -15.3906555 -15.71875q-5.625 -9.796875 -5.625 -20.875q0 -17.4375 12.5781555 -29.96875q12.59375 -12.546875 30.125 -12.546875q11.71875 0 23.28125 6.75l0 9.15625q-12.609375 -8.578125 -23.28125 -8.578125q-14.390625 0 -24.6875 10.34375q-10.2812805 10.34375 -10.2812805 24.796875q0 14.4375 10.2969055 24.828125q10.296875 10.390625 24.671875 10.390625q8.046875 0 15.53125 -3.5625l0 -20.0l-25.796875 0zm79.14398 -52.5625l32.296875 0l0 7.328125l-24.546875 0l0 38.125l20.484375 0l0 7.328125l-20.484375 0l0 22.203125l24.546875 0l0 7.328125l-32.296875 0l0 -82.3125zm132.18231 0l7.328125 0l0 87.359375l-57.40625 -70.609375l0 65.5625l-7.328125 0l0 -87.359375l57.40625 70.515625l0 -65.46875z" fill-rule="nonzero"/></g></svg>