<svg version="1.1" viewBox="0.0 0.0 153.6010498687664 153.6010498687664" fill="none" stroke="none" stroke-linecap="square" stroke-miterlimit="10" xmlns:xlink="http://www.w3.org/1999/xlink" xmlns="http://www.w3.org/2000/svg"><clipPath id="p.0"><path d="m0 0l153.60104 0l0 153.60104l-153.60104 0l0 -153.60104z" clip-rule="nonzero"/></clipPath><g clip-path="url(#p.0)"><path fill="#000000" fill-opacity="0.0" d="m0 0l153.60104 0l0 153.60104l-153.60104 0z" fill-rule="evenodd"/><path fill="#3c78d8" d="m13.416512 72.51706l0 -8.464569l0 0c0 -28.049103 22.738293 -50.7874 50.7874 -50.7874l0 0l0 -8.464567l16.929138 16.929134l-16.929138 16.929136l0 -8.464569l0 0l0 0c-18.699402 0 -33.858265 15.158863 -33.858265 33.858265l0 8.464569z" fill-rule="evenodd"/><path stroke="#3c78d8" stroke-width="1.0" stroke-linejoin="round" stroke-linecap="butt" d="m13.416512 72.51706l0 -8.464569l0 0c0 -28.049103 22.738293 -50.7874 50.7874 -50.7874l0 0l0 -8.464567l16.929138 16.929134l-16.929138 16.929136l0 -8.464569l0 0l0 0c-18.699402 0 -33.858265 15.158863 -33.858265 33.858265l0 8.464569z" fill-rule="evenodd"/><path fill="#3c78d8" d="m72.51706 140.18495l-8.464569 0l0 0c-28.049103 0 -50.7874 -22.738289 -50.7874 -50.7874l0 0l-8.464567 0l16.929134 -16.92913l16.929136 16.92913l-8.464569 0l0 0l0 0c0 18.69941 15.158863 33.85827 33.858265 33.85827l8.464569 0z" fill-rule="evenodd"/><path stroke="#3c78d8" stroke-width="1.0" stroke-linejoin="round" stroke-linecap="butt" d="m72.51706 140.18495l-8.464569 0l0 0c-28.049103 0 -50.7874 -22.738289 -50.7874 -50.7874l0 0l-8.464567 0l16.929134 -16.92913l16.929136 16.92913l-8.464569 0l0 0l0 0c0 18.69941 15.158863 33.85827 33.858265 33.85827l8.464569 0z" fill-rule="evenodd"/><path fill="#3c78d8" d="m81.08399 13.416308l8.464561 0l0 0c28.04911 0 50.7874 22.738293 50.7874 50.787403l0 0l8.464569 0l-16.929138 16.92913l-16.929123 -16.92913l8.464561 0l0 0l0 0c0 -18.699406 -15.158859 -33.85827 -33.85827 -33.85827l-8.464561 0z" fill-rule="evenodd"/><path stroke="#3c78d8" stroke-width="1.0" stroke-linejoin="round" stroke-linecap="butt" d="m81.08399 13.416308l8.464561 0l0 0c28.04911 0 50.7874 22.738293 50.7874 50.787403l0 0l8.464569 0l-16.929138 16.92913l-16.929123 -16.92913l8.464561 0l0 0l0 0c0 -18.699406 -15.158859 -33.85827 -33.85827 -33.85827l-8.464561 0z" fill-rule="evenodd"/><path fill="#3c78d8" d="m140.18475 81.08399l0 8.464561l0 0c0 28.04911 -22.738297 50.7874 -50.7874 50.7874l0 0l0 8.464569l-16.929138 -16.929138l16.929138 -16.929123l0 8.464561l0 0l0 0c18.699402 0 33.85827 -15.158859 33.85827 -33.85827l0 -8.464561z" fill-rule="evenodd"/><path stroke="#3c78d8" stroke-width="1.0" stroke-linejoin="round" stroke-linecap="butt" d="m140.18475 81.08399l0 8.464561l0 0c0 28.04911 -22.738297 50.7874 -50.7874 50.7874l0 0l0 8.464569l-16.929138 -16.929138l16.929138 -16.929123l0 8.464561l0 0l0 0c18.699402 0 33.85827 -15.158859 33.85827 -33.85827l0 -8.464561z" fill-rule="evenodd"/></g></svg>